<?xml version="1.0" encoding="UTF-8" standalone="no"?>
<svg
   xmlns:dc="http://purl.org/dc/elements/1.1/"
   xmlns:cc="http://creativecommons.org/ns#"
   xmlns:rdf="http://www.w3.org/1999/02/22-rdf-syntax-ns#"
   xmlns:svg="http://www.w3.org/2000/svg"
   xmlns="http://www.w3.org/2000/svg"
   xmlns:sodipodi="http://sodipodi.sourceforge.net/DTD/sodipodi-0.dtd"
   xmlns:inkscape="http://www.inkscape.org/namespaces/inkscape"
   viewBox="0 0 500 500"
   version="1.1"
   id="svg50"
   sodipodi:docname="iconfinder_weather-27_1530368.svg"
   inkscape:version="0.92.4 (5da689c313, 2019-01-14)">
  <metadata
     id="metadata54">
    <rdf:RDF>
      <cc:Work
         rdf:about="">
        <dc:format>image/svg+xml</dc:format>
        <dc:type
           rdf:resource="http://purl.org/dc/dcmitype/StillImage" />
      </cc:Work>
    </rdf:RDF>
  </metadata>
  <sodipodi:namedview
     pagecolor="#ffffff"
     bordercolor="#666666"
     borderopacity="1"
     objecttolerance="10"
     gridtolerance="10"
     guidetolerance="10"
     inkscape:pageopacity="0"
     inkscape:pageshadow="2"
     inkscape:window-width="1920"
     inkscape:window-height="1017"
     id="namedview52"
     showgrid="false"
     inkscape:zoom="1.696"
     inkscape:cx="250"
     inkscape:cy="250"
     inkscape:window-x="-8"
     inkscape:window-y="-8"
     inkscape:window-maximized="1"
     inkscape:current-layer="svg50" />
  <defs
     id="defs35">
    <style
       id="style33">.cls-1{fill:#dcdddd;}.cls-2{fill:#231815;}</style>
  </defs>
  <title
     id="title37" />
  <g
     data-name="图层 1"
     id="图层_1">
    <path
       class="cls-2"
       d="M325.57,320.54a59.9,59.9,0,0,0,58.79-52.34c3.7-30-17-58.47-46.46-64.86l5.24,5.24c-9.07-28.39-33.17-50.81-62.81-56a82.4,82.4,0,0,0-82.71,35.25l8.47-3.45c-31.4-9.69-66.35,3.77-82.26,32.77-15.16,27.65-9.62,63.37,13.66,84.79a70.91,70.91,0,0,0,47.42,18.61c9.66.11,9.66-14.89,0-15-24.5-.27-46.36-16.6-52.84-40.4a55.22,55.22,0,0,1,25.59-61.82c13.58-7.83,29.54-9.09,44.43-4.49,3.34,1,6.63-.74,8.47-3.45,14.64-21.54,41.42-33.14,67.15-28.1a67.05,67.05,0,0,1,50.95,45.29,7.54,7.54,0,0,0,5.24,5.24c22.53,4.89,38.5,25.75,35.61,49-2.74,22.09-22,38.41-44,38.7-9.64.13-9.67,15.13,0,15Z"
       id="path41" />
    <path
       class="cls-2"
       d="M211.08,320.54h89.27c9.65,0,9.67-15,0-15H211.08c-9.65,0-9.67,15,0,15Z"
       id="path43" />
    <path
       class="cls-2"
       d="M307.21,277.24H195.82c-9.65,0-9.67,15,0,15H307.21c9.65,0,9.67-15,0-15Z"
       id="path45" />
    <path
       class="cls-2"
       d="M329,333.83H228.82c-9.65,0-9.67,15,0,15H329c9.65,0,9.67-15,0-15Z"
       id="path47" />
  </g>
</svg>
